<?xml version="1.0" encoding="iso-8859-1"?>
<!-- Generator: Adobe Illustrator 19.0.0, SVG Export Plug-In . SVG Version: 6.00 Build 0)  -->
<svg version="1.1" id="icon" xmlns="http://www.w3.org/2000/svg" xmlns:xlink="http://www.w3.org/1999/xlink" x="0px" y="0px"
	 viewBox="0 0 335.429 335.429" xml:space="preserve">
<g>
	<g>
		<g>
			<path fill="black" stroke="black" d="M261.101,301.363H0L8.139,135.09C9.97,86.38,25.229,34.068,54.467,34.068l219.109-0.002l20.044,0.001
				c0.104,0,0.208,0.001,0.312,0c0.024,0,0.051,0,0.074,0c7.002,0.01,17.107,3.107,25.557,17.773
				c9.96,17.289,15.891,48.372,15.866,83.148c-0.025,34.806-6.021,65.9-16.039,83.177c-8.513,14.681-18.678,17.777-25.729,17.777
				c-0.079,0-0.156,0-0.235,0c-6.875,0-16.85-3.025-25.2-17.278c-0.997-1.702-1.945-3.528-2.847-5.474L261.101,301.363z
				 M17.852,284.363h227.054l7.578-156.206c0.016-0.317,0.048-0.629,0.097-0.936c0.876-29.551,6.144-58.174,15.794-75.107
				c0.203-0.356,0.407-0.705,0.611-1.048c-40.316-0.001-120.196,0-169.285,0.001H54.468c-12.389,0-27.573,36.317-29.351,84.92
				h-0.008L17.852,284.363z M293.991,51.068c-4.529,0.039-8.398,5.166-10.848,9.464c-18.22,31.97-18.366,118.62-0.25,149.541
				c3.449,5.887,7.021,8.872,10.617,8.872c0.022,0,0.043,0,0.064,0c4.736,0,8.646-5.059,11.109-9.305
				c18.178-31.351,18.265-117.868,0.149-149.312C302.402,56.109,298.55,51.082,293.991,51.068z"/>
		</g>
		<path fill="black" stroke="black" d="M297.9,108.155c-12.926,0-12.926,53.427,0,53.427C303.973,161.581,303.973,108.155,297.9,108.155z"/>
	</g>
	<g>
	</g>
	<g>
	</g>
	<g>
	</g>
	<g>
	</g>
	<g>
	</g>
	<g>
	</g>
	<g>
	</g>
	<g>
	</g>
	<g>
	</g>
	<g>
	</g>
	<g>
	</g>
	<g>
	</g>
	<g>
	</g>
	<g>
	</g>
	<g>
	</g>
</g>
<g>
</g>
<g>
</g>
<g>
</g>
<g>
</g>
<g>
</g>
<g>
</g>
<g>
</g>
<g>
</g>
<g>
</g>
<g>
</g>
<g>
</g>
<g>
</g>
<g>
</g>
<g>
</g>
<g>
</g>
</svg>
